<svg width="30" height="28" viewBox="0 0 30 28" fill="none" xmlns="http://www.w3.org/2000/svg" xmlns:xlink="http://www.w3.org/1999/xlink">
<line x1="0.716" y1="20.155" x2="11.217" y2="20.155" stroke="#0D0D0D" stroke-width="1.5" stroke-miterlimit="3.999327" stroke-linecap="round" stroke-linejoin="round"/>
<line x1="15.901" y1="4.001" x2="26.402" y2="4.001" stroke="#0D0D0D" stroke-width="1.5" stroke-miterlimit="3.999327" stroke-linecap="round" stroke-linejoin="round"/>
<path d="M10.044,5.41C10.044,2.412 7.599,0 4.605,0L4.605,3C5.962,3 7.044,4.09 7.044,5.41L10.044,5.41ZM4.605,0C1.612,0 -0.833,2.412 -0.833,5.41L2.167,5.41C2.167,4.09 3.249,3 4.605,3L4.605,0ZM-0.833,5.41C-0.833,8.408 1.612,10.821 4.605,10.821L4.605,7.821C3.249,7.821 2.167,6.731 2.167,5.41L-0.833,5.41ZM4.605,10.821C7.599,10.821 10.044,8.408 10.044,5.41L7.044,5.41C7.044,6.731 5.962,7.821 4.605,7.821L4.605,10.821Z" fill="#0D0D0D"/>
<path d="M28.833,21.59C28.833,18.592 26.39,16.179 23.396,16.179L23.396,19.179C24.752,19.179 25.833,20.268 25.833,21.59L28.833,21.59ZM23.396,16.179C20.402,16.179 17.956,18.591 17.956,21.59L20.956,21.59C20.956,20.269 22.038,19.179 23.396,19.179L23.396,16.179ZM17.956,21.59C17.956,24.588 20.402,27 23.396,27L23.396,24C22.038,24 20.956,22.91 20.956,21.59L17.956,21.59ZM23.396,27C26.39,27 28.833,24.587 28.833,21.59L25.833,21.59C25.833,22.911 24.752,24 23.396,24L23.396,27Z" fill="#0D0D0D"/>
</svg>
