<svg width="48" height="48" viewBox="0 0 48 48" fill="none" xmlns="http://www.w3.org/2000/svg" xmlns:xlink="http://www.w3.org/1999/xlink">
<path d="M23.265,7.5C31.734,7.5 38.6,14.365 38.6,22.835L41.6,22.835C41.6,12.708 33.391,4.5 23.265,4.5L23.265,7.5ZM38.6,22.835C38.6,31.305 31.734,38.172 23.265,38.172L23.265,41.172C33.391,41.172 41.6,32.961 41.6,22.835L38.6,22.835ZM23.265,38.172C14.795,38.172 7.93,31.305 7.93,22.835L4.93,22.835C4.93,32.961 13.138,41.172 23.265,41.172L23.265,38.172ZM7.93,22.835C7.93,14.365 14.795,7.5 23.265,7.5L23.265,4.5C13.138,4.5 4.93,12.708 4.93,22.835L7.93,22.835Z" fill="#000000"/>
<path d="M35.782,34.106C35.195,33.521 34.246,33.522 33.661,34.109C33.076,34.695 33.077,35.645 33.663,36.23L35.782,34.106ZM40.513,43.062C41.1,43.647 42.05,43.646 42.635,43.06C43.22,42.473 43.218,41.523 42.632,40.938L40.513,43.062ZM33.663,36.23L40.513,43.062L42.632,40.938L35.782,34.106L33.663,36.23Z" fill="#000000"/>
</svg>
